# xmcd
# 
# Track frame offsets:
#     150
#     35810
#     65591
#     87520
#     115273
#     133743
#     159026
#     185074
#     222394
#     253013
# 
# Disc length: 3763
# 
# Revision: 1
# Processed by: cddbd v1.5.2PL0 Copyright (c) Steve Scherf et al.
# Submitted via: BonkEnc v1.0.8
# 
DISCID=950eb10a
DTITLE=Dave Liebman, Eric Ineke, Marius Beets - Lieb Plays Wilder
DYEAR=2003
DGENRE=Contemporary Jazz
TTITLE0=Where Is The One
TTITLE1=Winter Of My Discontent
TTITLE2=Trouble Is A Man
TTITLE3=If Love's Like A Lark
TTITLE4=The Wrong Blues
TTITLE5=The Lady Sings The Blues
TTITLE6=Moon And Sand
TTITLE7=Jast As Though You Were Here
TTITLE8=While We're Young
TTITLE9=A Long Night
EXTD=YEAR: 2003
EXTT0=
EXTT1=
EXTT2=
EXTT3=
EXTT4=
EXTT5=
EXTT6=
EXTT7=
EXTT8=
EXTT9=
PLAYORDER=
